<svg width="50" height="50" viewBox="0 0 50 50" fill="none" xmlns="http://www.w3.org/2000/svg">
<path d="M21.232 2.67969C18.5074 2.72559 16.0465 4.35059 14.9332 6.86328L28.2633 10.8896C28.8492 7.39453 26.7496 4.00586 23.3707 2.97754C22.7653 2.79395 22.1305 2.69336 21.4957 2.67969H21.232ZM14.4254 8.54688C13.8297 12.0518 15.9293 15.4502 19.318 16.4756C22.7164 17.501 26.3395 15.8213 27.7653 12.5693L14.4254 8.54688ZM40.3531 12.8721C37.8824 12.8818 35.2555 14.0732 33.2731 16.876L21.0856 34.1514C17.8141 38.7803 19.2399 43.624 22.4625 45.9092C25.6949 48.2041 30.7242 47.9404 33.9957 43.3115L46.1735 26.0459C49.4449 21.4072 48.0192 16.5732 44.7965 14.2783C43.5856 13.4189 42.1305 12.9209 40.5973 12.8721H40.3531ZM40.1774 14.5615C40.3043 14.5615 40.4313 14.5615 40.5485 14.5713C41.7301 14.6201 42.8434 15.04 43.7809 15.7139C46.2906 17.4912 47.5504 21.0361 44.7281 25.0303L38.4293 33.9658C34.9332 33.0283 30.441 29.835 28.4 26.8369L34.7184 17.8916C36.3688 15.5576 38.3317 14.6006 40.1774 14.5615ZM8.91271 22.0029C7.97326 22.0127 7.0465 22.208 6.18517 22.5889C2.95178 24.0049 1.26916 27.6182 2.25549 31.0166L15.0211 25.4404C13.7418 23.2822 11.4176 21.9736 8.91271 22.0029ZM15.7145 27.042L2.9508 32.6279C4.75256 35.6943 8.5465 36.9248 11.7985 35.5088C15.0406 34.083 16.7203 30.4502 15.7145 27.042Z" fill="#14A6B0"/>
</svg>
